<?xml version="1.0" encoding="UTF-8" standalone="no"?>
<svg
        xmlns:dc="http://purl.org/dc/elements/1.1/"
        xmlns:cc="http://creativecommons.org/ns#"
        xmlns:rdf="http://www.w3.org/1999/02/22-rdf-syntax-ns#"
        xmlns="http://www.w3.org/2000/svg"
        xmlns:xlink="http://www.w3.org/1999/xlink"
        version="1.1"
        id="svg5066"
        viewBox="0 0 744.09448819 1052.3622047"
        height="297mm"
        width="210mm">
  <defs
     id="defs5068" />
  <metadata
     id="metadata5071">
    <rdf:RDF>
      <cc:Work
         rdf:about="">
        <dc:format>image/svg+xml</dc:format>
        <dc:type
           rdf:resource="http://purl.org/dc/dcmitype/StillImage" />
        <dc:title></dc:title>
      </cc:Work>
    </rdf:RDF>
  </metadata>
  <path
     d="m 78.926202,210.04765 c 141.836898,0 283.673788,0 425.510688,0 0,94.55793 0,189.11586 0,283.67379 -141.8369,0 -283.67379,0 -425.510688,0 0,-94.55793 0,-189.11586 0,-283.67379 z"
     style="fill:#003399"
     id="rect4921" />
  <use
     transform="matrix(30,0,0,30,232.01941,400.49814)"
     xlink:href="#s"
     y="-6"
     id="use4925"
     style="fill:#ffcc00"
     x="0"
     width="100%"
     height="100%" />
  <use
     transform="matrix(30,0,0,30,232.01941,400.49814)"
     xlink:href="#s"
     y="6"
     id="use4927"
     style="fill:#ffcc00"
     x="0"
     width="100%"
     height="100%" />
  <g
     transform="matrix(30,0,0,30,232.01941,400.49814)"
     id="l"
     style="fill:#ffcc00">
    <use
       xlink:href="#s"
       x="-6"
       id="use4930"
       y="0"
       width="100%"
       height="100%" />
    <use
       xlink:href="#s"
       transform="matrix(-0.80901699,-0.58778525,0.58778525,-0.80901699,-3,-5.1961524)"
       id="use4932"
       x="0"
       y="0"
       width="100%"
       height="100%" />
    <use
       xlink:href="#s"
       transform="matrix(-0.80901699,0.58778525,-0.58778525,-0.80901699,-5.1961524,-3)"
       id="use4934"
       x="0"
       y="0"
       width="100%"
       height="100%" />
    <use
       xlink:href="#s"
       transform="matrix(0.30901699,0.95105652,-0.95105652,0.30901699,-5.1961524,3)"
       id="use4936"
       x="0"
       y="0"
       width="100%"
       height="100%" />
    <use
       xlink:href="#s"
       transform="matrix(0.30901699,0.95105652,-0.95105652,0.30901699,-3,5.1961524)"
       id="use4938"
       x="0"
       y="0"
       width="100%"
       height="100%" />
  </g>
  <use
     xlink:href="#l"
     transform="matrix(-1,0,0,1,464.03882,-1.0736472e-6)"
     id="use4940"
     style="fill:#ffcc00"
     x="0"
     y="0"
     width="100%"
     height="100%" />
</svg>
