<svg xmlns="http://www.w3.org/2000/svg" width="525.27" height="350.18" viewBox="0 0 525.27 350.18">
  <title>Asset 32EuStarsTopBottom4</title>
  <g id="Layer_2" data-name="Layer 2">
    <g id="Score">
      <g id="page5">
        <g id="EUFlag">
          <rect width="525.27" height="350.18" style="fill: none"/>
          <path d="M262.64,38.91l4.28,13.42h14.2L269.64,60.7l4.28,13.42-11.48-8.37L251,74.12l4.28-13.42-11.48-8.37H258Z" style="fill: #ffef52"/>
          <path d="M363.8,214l4.28,13.42h14.2l-11.48,8.37,4.28,13.42-11.48-8.37-11.48,8.37,4.28-13.42-11.48-8.37h14.2Z" style="fill: #ffef52"/>
          <path d="M262.64,272.36l4.28,13.42h14.2l-11.48,8.37,4.28,13.42-11.48-8.37L251,307.57l4.28-13.42-11.48-8.37H258Z" style="fill: #ffef52"/>
          <path d="M379.36,155.64l4.28,13.42h14.2l-11.48,8.37,4.28,13.42-11.48-8.37-11.48,8.37L372,177.42l-11.48-8.37h14.2Z" style="fill: none"/>
          <path d="M145.91,155.64l4.28,13.42h14.2l-11.48,8.37,4.28,13.42-11.28-8.37-11.48,8.37,4.28-13.42-11.48-8.37h14.2Z" style="fill: none"/>
          <path d="M321,54.47l4.28,13.42h14.2L328,76.26l4.28,13.42L320.8,81.32l-11.48,8.37,4.28-13.42L302.13,67.9h14.2Z" style="fill: #ffef52"/>
          <path d="M204.27,54.47l4.28,13.42h14.2l-11.48,8.37,4.28,13.42-11.48-8.37L192.6,89.68l4.28-13.42L185.4,67.9h14.2Z" style="fill: #ffef52"/>
          <path d="M204.27,256.8l4.28,13.42h14.2l-11.48,8.37L215.56,292l-11.48-8.37L192.6,292l4.28-13.42-11.48-8.37h14.2Z" style="fill: #ffef52"/>
          <path d="M321,256.8l4.28,13.42h14.2L328,278.59,332.28,292l-11.48-8.37L309.33,292l4.28-13.42-11.48-8.37h14.2Z" style="fill: #ffef52"/>
          <path d="M363.8,97.27l4.28,13.42h14.2l-11.48,8.37,4.28,13.42-11.48-8.37-11.48,8.37,4.28-13.42-11.48-8.37h14.2Z" style="fill: #ffef52"/>
          <path d="M161.47,97.27l4.28,13.42H180l-11.48,8.37,4.28,13.42-11.28-8.37L150,132.48l4.28-13.42L142.8,110.7H157Z" style="fill: #ffef52"/>
          <path d="M161.47,214l4.28,13.42H180l-11.48,8.37,4.28,13.42-11.48-8.37-11.48,8.37,4.28-13.42-11.48-8.37h14.2Z" style="fill: #ffef52"/>
        </g>
      </g>
    </g>
  </g>
</svg>
