<?xml version="1.0" encoding="UTF-8" standalone="no"?>
<svg id="svg4903" xmlns:rdf="http://www.w3.org/1999/02/22-rdf-syntax-ns#" xmlns="http://www.w3.org/2000/svg" height="540" width="810" version="1.1" xmlns:cc="http://creativecommons.org/ns#" xmlns:xlink="http://www.w3.org/1999/xlink" xmlns:dc="http://purl.org/dc/elements/1.1/">
 <metadata id="metadata4944">
  <rdf:RDF>
   <cc:Work rdf:about="">
    <dc:format>image/svg+xml</dc:format>
    <dc:type rdf:resource="http://purl.org/dc/dcmitype/StillImage"/>
    <dc:title/>
   </cc:Work>
  </rdf:RDF>
 </metadata>
 <desc id="desc4905">European flag</desc>
 <defs id="defs4907">
  <g id="s">
   <g id="c">
    <path id="t" transform="translate(0,-1)rotate(18)" d="m0 0v1h0.5z"/>
    <use id="use4912" xlink:href="#t" transform="scale(-1,1)"/>
   </g>
   <g id="a">
    <use id="use4915" xlink:href="#c" transform="rotate(72)"/>
    <use id="use4917" xlink:href="#c" transform="rotate(144)"/>
   </g>
   <use id="use4919" xlink:href="#a" transform="scale(-1,1)"/>
  </g>
 </defs>
 <path id="rect4921" fill="#039" d="m0 0h810v540h-810v-540z"/>
 <use id="use4925" xlink:href="#s" transform="matrix(30,0,0,30,405,270)" height="100%" width="100%" y="-6" x="0" fill="#ffcc00"/>
 <use id="use4927" xlink:href="#s" transform="matrix(30,0,0,30,405,270)" height="100%" width="100%" y="6" x="0" fill="#ffcc00"/>
 <g id="l" fill="#fc0" transform="matrix(30,0,0,30,405,270)">
  <use id="use4930" xlink:href="#s" height="100%" width="100%" y="0" x="-6"/>
  <use id="use4932" xlink:href="#s" transform="matrix(-.80902 -.58779 .58779 -.80902 -3 -5.1962)" height="100%" width="100%" y="0" x="0"/>
  <use id="use4934" xlink:href="#s" transform="matrix(-.80902 .58779 -.58779 -.80902 -5.1962 -3)" height="100%" width="100%" y="0" x="0"/>
  <use id="use4936" xlink:href="#s" transform="matrix(.30902 .95106 -.95106 .30902 -5.1962 3)" height="100%" width="100%" y="0" x="0"/>
  <use id="use4938" xlink:href="#s" transform="matrix(.30902 .95106 -.95106 .30902 -3 5.1962)" height="100%" width="100%" y="0" x="0"/>
 </g>
 <use id="use4940" xlink:href="#l" transform="matrix(-1,0,0,1,810,0)" height="100%" width="100%" y="0" x="0" fill="#ffcc00"/>
</svg>
