<?xml version="1.0" encoding="UTF-8" standalone="no"?>
<!-- Created with Inkscape (http://www.inkscape.org/) -->

<svg
        xmlns:osb="http://www.openswatchbook.org/uri/2009/osb"
        xmlns:dc="http://purl.org/dc/elements/1.1/"
        xmlns:cc="http://creativecommons.org/ns#"
        xmlns:rdf="http://www.w3.org/1999/02/22-rdf-syntax-ns#"
        xmlns="http://www.w3.org/2000/svg"
        xmlns:sodipodi="http://sodipodi.sourceforge.net/DTD/sodipodi-0.dtd"
        xmlns:inkscape="http://www.inkscape.org/namespaces/inkscape"
        width="7.7084088mm"
        height="21.003757mm"
        viewBox="0 0 27.31326 74.422762"
        id="svg2"
        version="1.1"
        inkscape:version="0.91 r13725"
        sodipodi:docname="FluteMultiPhonicFIngering2svg.svg">
  <defs
     id="defs4">
    <linearGradient
       id="linearGradient5597"
       osb:paint="solid">
      <stop
         style="stop-color:#000000;stop-opacity:1;"
         offset="0"
         id="stop5599" />
    </linearGradient>
  </defs>
  <sodipodi:namedview
     id="base"
     pagecolor="#ffffff"
     bordercolor="#666666"
     borderopacity="1.0"
     inkscape:pageopacity="0.0"
     inkscape:pageshadow="2"
     inkscape:zoom="13.974219"
     inkscape:cx="13.656628"
     inkscape:cy="37.211383"
     inkscape:document-units="px"
     inkscape:current-layer="layer1"
     showgrid="false"
     inkscape:window-width="1467"
     inkscape:window-height="1206"
     inkscape:window-x="341"
     inkscape:window-y="21"
     inkscape:window-maximized="0"
     fit-margin-top="0"
     fit-margin-left="0"
     fit-margin-right="0"
     fit-margin-bottom="0" />
  <metadata
     id="metadata7">
    <rdf:RDF>
      <cc:Work
         rdf:about="">
        <dc:format>image/svg+xml</dc:format>
        <dc:type
           rdf:resource="http://purl.org/dc/dcmitype/StillImage" />
        <dc:title></dc:title>
      </cc:Work>
    </rdf:RDF>
  </metadata>
  <g
     inkscape:label="Layer 1"
     inkscape:groupmode="layer"
     id="layer1"
     transform="translate(-345.39121,-408.56348)">
    <circle
       style="opacity:0.76470588;fill:none;fill-opacity:1;fill-rule:nonzero;stroke:#000000;stroke-width:0.375;stroke-linecap:butt;stroke-linejoin:bevel;stroke-miterlimit:4;stroke-dasharray:none;stroke-opacity:1"
       id="path4136-9"
       cx="362.3316"
       cy="412.46191"
       r="3.7109375" />
    <circle
       style="opacity:0.76470588;fill:none;fill-opacity:1;fill-rule:nonzero;stroke:#000000;stroke-width:0.375;stroke-linecap:butt;stroke-linejoin:bevel;stroke-miterlimit:4;stroke-dasharray:none;stroke-opacity:1"
       id="path4136-9-3"
       cx="362.3316"
       cy="426.09741"
       r="3.7109375" />
    <circle
       style="opacity:0.76470588;fill:none;fill-opacity:1;fill-rule:nonzero;stroke:#000000;stroke-width:0.375;stroke-linecap:butt;stroke-linejoin:bevel;stroke-miterlimit:4;stroke-dasharray:none;stroke-opacity:1"
       id="path4136-9-1"
       cx="362.3316"
       cy="454.61649"
       r="3.7109375" />
    <circle
       style="opacity:0.76470588;fill:none;fill-opacity:1;fill-rule:nonzero;stroke:#000000;stroke-width:0.375;stroke-linecap:butt;stroke-linejoin:bevel;stroke-miterlimit:4;stroke-dasharray:none;stroke-opacity:1"
       id="path4136-9-9"
       cx="362.3316"
       cy="434.31479"
       r="3.7109375" />
    <circle
       style="opacity:0.76470588;fill:none;fill-opacity:1;fill-rule:nonzero;stroke:#000000;stroke-width:0.375;stroke-linecap:butt;stroke-linejoin:bevel;stroke-miterlimit:4;stroke-dasharray:none;stroke-opacity:1"
       id="path4136-9-8"
       cx="356.84186"
       cy="419.53735"
       r="3.7109375" />
    <circle
       style="opacity:0.76470588;fill:none;fill-opacity:1;fill-rule:nonzero;stroke:#000000;stroke-width:0.375;stroke-linecap:butt;stroke-linejoin:bevel;stroke-miterlimit:4;stroke-dasharray:none;stroke-opacity:1"
       id="path4136-9-6"
       cx="362.3316"
       cy="446.26102"
       r="3.7109375" />
    <circle
       style="opacity:0.76470588;fill:none;fill-opacity:1;fill-rule:nonzero;stroke:#000000;stroke-width:0.375;stroke-linecap:butt;stroke-linejoin:bevel;stroke-miterlimit:4;stroke-dasharray:none;stroke-opacity:1"
       id="path4136-9-14"
       cx="362.3316"
       cy="462.97195"
       r="3.7109375" />
    <ellipse
       style="opacity:0.76470588;fill:none;fill-opacity:1;fill-rule:nonzero;stroke:#000000;stroke-width:0.375;stroke-linecap:butt;stroke-linejoin:bevel;stroke-miterlimit:4;stroke-dasharray:none;stroke-opacity:1"
       id="path5677"
       cx="367.30344"
       cy="440.5296"
       rx="5.2135315"
       ry="1.6572815" />
    <path
       style="opacity:0.76470588;fill:none;fill-opacity:1;fill-rule:nonzero;stroke:#000000;stroke-width:0.375;stroke-linecap:butt;stroke-linejoin:bevel;stroke-miterlimit:4;stroke-dasharray:none;stroke-opacity:1"
       d="m 368.30473,470.94761 c -0.92864,0.10319 -2.96593,0.31074 -6.28386,0.31074 -3.31793,0 -6.53023,-0.13644 -6.42196,-1.69181 0.27838,-3.99911 3.71015,-2.49033 7.31965,-0.93222 3.80108,1.64081 5.43854,2.30747 5.38617,2.31329 z"
       id="path5683"
       inkscape:connector-curvature="0"
       sodipodi:nodetypes="sssss" />
    <ellipse
       style="opacity:0.76470588;fill:none;fill-opacity:1;fill-rule:nonzero;stroke:#000000;stroke-width:0.375;stroke-linecap:butt;stroke-linejoin:bevel;stroke-miterlimit:4;stroke-dasharray:none;stroke-opacity:1"
       id="path5686"
       cx="367.92493"
       cy="477.99106"
       rx="1.6227547"
       ry="4.3848906" />
    <ellipse
       style="opacity:0.76470588;fill:none;fill-opacity:1;fill-rule:nonzero;stroke:#000000;stroke-width:0.375;stroke-linecap:butt;stroke-linejoin:bevel;stroke-miterlimit:4;stroke-dasharray:none;stroke-opacity:1"
       id="path5686-4"
       cx="363.88531"
       cy="478.1637"
       rx="1.6227547"
       ry="4.3848906" />
    <path
       style="opacity:0.76470588;fill:none;fill-opacity:1;fill-rule:nonzero;stroke:#000000;stroke-width:0.375;stroke-linecap:butt;stroke-linejoin:bevel;stroke-miterlimit:4;stroke-dasharray:none;stroke-opacity:1"
       d="m 361.33034,482.445 c -0.0386,0.4941 -2.11222,0.46464 -2.08527,-0.0514 0.22852,-4.37556 -1.78172,-5.87379 -1.78172,-6.16337 -2.42023,-2.05264 -2.53431,-2.55644 -0.0691,-2.62403 l 3.77225,-0.0317 c 0.21842,3.77596 0.11246,5.92998 0.16379,8.87048 z"
       id="path5709"
       inkscape:connector-curvature="0"
       sodipodi:nodetypes="cscccc" />
    <ellipse
       style="opacity:0.76470588;fill:none;fill-opacity:1;fill-rule:nonzero;stroke:#000000;stroke-width:0.375;stroke-linecap:butt;stroke-linejoin:bevel;stroke-miterlimit:4;stroke-dasharray:none;stroke-opacity:1"
       id="path5716"
       cx="356.08099"
       cy="458.58704"
       rx="2.9347694"
       ry="1.1393811" />
    <ellipse
       style="opacity:0.76470588;fill:none;fill-opacity:1;fill-rule:nonzero;stroke:#000000;stroke-width:0.375;stroke-linecap:butt;stroke-linejoin:bevel;stroke-miterlimit:4;stroke-dasharray:none;stroke-opacity:1"
       id="path5716-8"
       cx="356.18457"
       cy="450.26611"
       rx="2.9347694"
       ry="1.1393811" />
    <path
       style="opacity:0.76470588;fill:#000000;fill-opacity:1;fill-rule:nonzero;stroke:#000000;stroke-width:0.13417566;stroke-linecap:butt;stroke-linejoin:bevel;stroke-miterlimit:4;stroke-dasharray:none;stroke-opacity:1"
       d="M 16.040434,7.2673419 C 15.466102,7.1089072 14.84621,6.7262232 14.411985,6.2620356 13.77192,5.5778038 13.47227,4.8246255 13.47227,3.9000357 c 0,-0.9819605 0.310997,-1.716381 1.03187,-2.4367659 0.73988,-0.7393782 1.428227,-1.0304124 2.437108,-1.0304124 1.017004,0 1.698756,0.28769248 2.437108,1.0284351 0.721121,0.7234556 1.031871,1.4578878 1.031871,2.4387432 0,1.5664219 -1.079934,2.9662303 -2.600837,3.3711993 -0.450458,0.1199429 -1.32704,0.1180137 -1.768956,-0.00389 z"
       id="path4958"
       inkscape:connector-curvature="0"
       transform="translate(345.39121,408.56348)" />
    <path
       style="opacity:0.76470588;fill:#000000;fill-opacity:1;fill-rule:nonzero;stroke:#000000;stroke-width:0.13417566;stroke-linecap:butt;stroke-linejoin:bevel;stroke-miterlimit:4;stroke-dasharray:none;stroke-opacity:1"
       d="M 10.544084,14.341942 C 9.9538232,14.183212 9.47143,13.893615 8.9867149,13.406999 7.6152467,12.030154 7.6277491,9.9002171 9.0153837,8.5229216 9.7328099,7.8108408 10.444963,7.5138335 11.434936,7.5138335 c 1.951183,0 3.472245,1.4899284 3.477587,3.4064055 0.0028,1.019167 -0.320879,1.817819 -1.017843,2.51114 -0.86753,0.862994 -2.190507,1.222528 -3.350596,0.910563 z"
       id="path4960"
       inkscape:connector-curvature="0"
       transform="translate(345.39121,408.56348)" />
    <path
       style="opacity:0.76470588;fill:#000000;fill-opacity:1;fill-rule:nonzero;stroke:#000000;stroke-width:0.13417566;stroke-linecap:butt;stroke-linejoin:bevel;stroke-miterlimit:4;stroke-dasharray:none;stroke-opacity:1"
       d="M 10.012677,42.57442 C 9.3388527,42.496101 8.5852309,42.255392 8.3229871,42.034729 8.0118635,41.772935 8.0323157,41.554168 8.390046,41.317434 c 1.0721902,-0.709542 3.966331,-0.678471 4.895685,0.05256 0.582452,0.458157 -0.271985,1.03621 -1.78307,1.206303 -0.711193,0.08006 -0.785895,0.07996 -1.489984,-0.0019 z"
       id="path4962"
       inkscape:connector-curvature="0"
       transform="translate(345.39121,408.56348)" />
    <path
       style="opacity:0.76470588;fill:#000000;fill-opacity:1;fill-rule:nonzero;stroke:#000000;stroke-width:0.13417566;stroke-linecap:butt;stroke-linejoin:bevel;stroke-miterlimit:4;stroke-dasharray:none;stroke-opacity:1"
       d="M 9.4989716,50.840815 C 8.8341977,50.716037 8.2183009,50.439374 8.0568867,50.193025 7.9544045,50.036617 7.9543063,50.004898 8.0558247,49.849961 c 0.5004514,-0.763785 3.5390233,-0.990807 4.7914263,-0.357983 0.313931,0.158626 0.55176,0.386516 0.55176,0.528705 0,0.14013 -0.236912,0.369676 -0.538697,0.521949 -0.689461,0.347884 -2.324029,0.492886 -3.3613424,0.298183 z"
       id="path4964"
       inkscape:connector-curvature="0"
       transform="translate(345.39121,408.56348)" />
    <path
       style="opacity:0.76470588;fill:#000000;fill-opacity:1;fill-rule:nonzero;stroke:#000000;stroke-width:0.13417566;stroke-linecap:butt;stroke-linejoin:bevel;stroke-miterlimit:4;stroke-dasharray:none;stroke-opacity:1"
       d="m 14.078834,62.424073 c -1.379407,-0.06762 -2.618092,-0.318553 -3.17305,-0.642784 -0.423502,-0.247427 -0.524654,-0.505355 -0.43804,-1.116959 0.193516,-1.366473 0.815048,-1.985588 1.992089,-1.984344 1.04273,0.0011 2.114188,0.369205 6.363482,2.186189 2.979046,1.27383 3.15364,1.358394 2.896213,1.40277 -0.86227,0.148642 -5.749166,0.247859 -7.640694,0.155128 z"
       id="path4966"
       inkscape:connector-curvature="0"
       transform="translate(345.39121,408.56348)" />
  </g>
</svg>
