<?xml version="1.0" encoding="UTF-8" standalone="no"?>
<!-- Created with Inkscape (http://www.inkscape.org/) -->

<svg
        xmlns:osb="http://www.openswatchbook.org/uri/2009/osb"
        xmlns:dc="http://purl.org/dc/elements/1.1/"
        xmlns:cc="http://creativecommons.org/ns#"
        xmlns:rdf="http://www.w3.org/1999/02/22-rdf-syntax-ns#"
        xmlns="http://www.w3.org/2000/svg"
        xmlns:sodipodi="http://sodipodi.sourceforge.net/DTD/sodipodi-0.dtd"
        xmlns:inkscape="http://www.inkscape.org/namespaces/inkscape"
        width="7.7084088mm"
        height="21.003757mm"
        viewBox="0 0 27.31326 74.422762"
        id="svg2"
        version="1.1"
        inkscape:version="0.91 r13725"
        sodipodi:docname="FluteMultiPhonicFIngering1svg.svg">
  <defs
     id="defs4">
    <linearGradient
       id="linearGradient5597"
       osb:paint="solid">
      <stop
         style="stop-color:#000000;stop-opacity:1;"
         offset="0"
         id="stop5599" />
    </linearGradient>
  </defs>
  <sodipodi:namedview
     id="base"
     pagecolor="#ffffff"
     bordercolor="#666666"
     borderopacity="1.0"
     inkscape:pageopacity="0.0"
     inkscape:pageshadow="2"
     inkscape:zoom="13.974219"
     inkscape:cx="13.656628"
     inkscape:cy="37.211383"
     inkscape:document-units="px"
     inkscape:current-layer="layer1"
     showgrid="false"
     inkscape:window-width="1467"
     inkscape:window-height="1206"
     inkscape:window-x="472"
     inkscape:window-y="68"
     inkscape:window-maximized="0"
     fit-margin-top="0"
     fit-margin-left="0"
     fit-margin-right="0"
     fit-margin-bottom="0" />
  <metadata
     id="metadata7">
    <rdf:RDF>
      <cc:Work
         rdf:about="">
        <dc:format>image/svg+xml</dc:format>
        <dc:type
           rdf:resource="http://purl.org/dc/dcmitype/StillImage" />
        <dc:title />
      </cc:Work>
    </rdf:RDF>
  </metadata>
  <g
     inkscape:label="Layer 1"
     inkscape:groupmode="layer"
     id="layer1"
     transform="translate(-345.39121,-408.56348)">
    <circle
       style="opacity:0.76470588;fill:none;fill-opacity:1;fill-rule:nonzero;stroke:#000000;stroke-width:0.375;stroke-linecap:butt;stroke-linejoin:bevel;stroke-miterlimit:4;stroke-dasharray:none;stroke-opacity:1"
       id="path4136-9"
       cx="362.3316"
       cy="412.46191"
       r="3.7109375" />
    <circle
       style="opacity:0.76470588;fill:none;fill-opacity:1;fill-rule:nonzero;stroke:#000000;stroke-width:0.375;stroke-linecap:butt;stroke-linejoin:bevel;stroke-miterlimit:4;stroke-dasharray:none;stroke-opacity:1"
       id="path4136-9-3"
       cx="362.3316"
       cy="426.09741"
       r="3.7109375" />
    <circle
       style="opacity:0.76470588;fill:none;fill-opacity:1;fill-rule:nonzero;stroke:#000000;stroke-width:0.375;stroke-linecap:butt;stroke-linejoin:bevel;stroke-miterlimit:4;stroke-dasharray:none;stroke-opacity:1"
       id="path4136-9-1"
       cx="362.3316"
       cy="454.61649"
       r="3.7109375" />
    <circle
       style="opacity:0.76470588;fill:none;fill-opacity:1;fill-rule:nonzero;stroke:#000000;stroke-width:0.375;stroke-linecap:butt;stroke-linejoin:bevel;stroke-miterlimit:4;stroke-dasharray:none;stroke-opacity:1"
       id="path4136-9-9"
       cx="362.3316"
       cy="434.31479"
       r="3.7109375" />
    <circle
       style="opacity:0.76470588;fill:none;fill-opacity:1;fill-rule:nonzero;stroke:#000000;stroke-width:0.375;stroke-linecap:butt;stroke-linejoin:bevel;stroke-miterlimit:4;stroke-dasharray:none;stroke-opacity:1"
       id="path4136-9-8"
       cx="356.84186"
       cy="419.53735"
       r="3.7109375" />
    <circle
       style="opacity:0.76470588;fill:none;fill-opacity:1;fill-rule:nonzero;stroke:#000000;stroke-width:0.375;stroke-linecap:butt;stroke-linejoin:bevel;stroke-miterlimit:4;stroke-dasharray:none;stroke-opacity:1"
       id="path4136-9-6"
       cx="362.3316"
       cy="446.26102"
       r="3.7109375" />
    <circle
       style="opacity:0.76470588;fill:none;fill-opacity:1;fill-rule:nonzero;stroke:#000000;stroke-width:0.375;stroke-linecap:butt;stroke-linejoin:bevel;stroke-miterlimit:4;stroke-dasharray:none;stroke-opacity:1"
       id="path4136-9-14"
       cx="362.3316"
       cy="462.97195"
       r="3.7109375" />
    <ellipse
       style="opacity:0.76470588;fill:none;fill-opacity:1;fill-rule:nonzero;stroke:#000000;stroke-width:0.375;stroke-linecap:butt;stroke-linejoin:bevel;stroke-miterlimit:4;stroke-dasharray:none;stroke-opacity:1"
       id="path5677"
       cx="367.30344"
       cy="440.5296"
       rx="5.2135315"
       ry="1.6572815" />
    <path
       style="opacity:0.76470588;fill:none;fill-opacity:1;fill-rule:nonzero;stroke:#000000;stroke-width:0.375;stroke-linecap:butt;stroke-linejoin:bevel;stroke-miterlimit:4;stroke-dasharray:none;stroke-opacity:1"
       d="m 368.30473,470.94761 c -0.92864,0.10319 -2.96593,0.31074 -6.28386,0.31074 -3.31793,0 -6.53023,-0.13644 -6.42196,-1.69181 0.27838,-3.99911 3.71015,-2.49033 7.31965,-0.93222 3.80108,1.64081 5.43854,2.30747 5.38617,2.31329 z"
       id="path5683"
       inkscape:connector-curvature="0"
       sodipodi:nodetypes="sssss" />
    <ellipse
       style="opacity:0.76470588;fill:none;fill-opacity:1;fill-rule:nonzero;stroke:#000000;stroke-width:0.375;stroke-linecap:butt;stroke-linejoin:bevel;stroke-miterlimit:4;stroke-dasharray:none;stroke-opacity:1"
       id="path5686"
       cx="367.92493"
       cy="477.99106"
       rx="1.6227547"
       ry="4.3848906" />
    <ellipse
       style="opacity:0.76470588;fill:none;fill-opacity:1;fill-rule:nonzero;stroke:#000000;stroke-width:0.375;stroke-linecap:butt;stroke-linejoin:bevel;stroke-miterlimit:4;stroke-dasharray:none;stroke-opacity:1"
       id="path5686-4"
       cx="363.88531"
       cy="478.1637"
       rx="1.6227547"
       ry="4.3848906" />
    <path
       style="opacity:0.76470588;fill:none;fill-opacity:1;fill-rule:nonzero;stroke:#000000;stroke-width:0.375;stroke-linecap:butt;stroke-linejoin:bevel;stroke-miterlimit:4;stroke-dasharray:none;stroke-opacity:1"
       d="m 361.33034,482.445 c -0.0386,0.4941 -2.11222,0.46464 -2.08527,-0.0514 0.22852,-4.37556 -1.78172,-5.87379 -1.78172,-6.16337 -2.42023,-2.05264 -2.53431,-2.55644 -0.0691,-2.62403 l 3.77225,-0.0317 c 0.21842,3.77596 0.11246,5.92998 0.16379,8.87048 z"
       id="path5709"
       inkscape:connector-curvature="0"
       sodipodi:nodetypes="cscccc" />
    <ellipse
       style="opacity:0.76470588;fill:none;fill-opacity:1;fill-rule:nonzero;stroke:#000000;stroke-width:0.375;stroke-linecap:butt;stroke-linejoin:bevel;stroke-miterlimit:4;stroke-dasharray:none;stroke-opacity:1"
       id="path5716"
       cx="356.08099"
       cy="458.58704"
       rx="2.9347694"
       ry="1.1393811" />
    <ellipse
       style="opacity:0.76470588;fill:none;fill-opacity:1;fill-rule:nonzero;stroke:#000000;stroke-width:0.375;stroke-linecap:butt;stroke-linejoin:bevel;stroke-miterlimit:4;stroke-dasharray:none;stroke-opacity:1"
       id="path5716-8"
       cx="356.18457"
       cy="450.26611"
       rx="2.9347694"
       ry="1.1393811" />
    <path
       style="opacity:0.76470588;fill:#000000;fill-opacity:1;fill-rule:nonzero;stroke:#000000;stroke-width:0.13417566;stroke-linecap:butt;stroke-linejoin:bevel;stroke-miterlimit:4;stroke-dasharray:none;stroke-opacity:1"
       d="M 10.544084,14.341942 C 9.9538232,14.183212 9.47143,13.893615 8.9867149,13.406999 7.6152467,12.030154 7.6277491,9.9002171 9.0153837,8.5229216 9.7328099,7.8108408 10.444963,7.5138335 11.434936,7.5138335 c 1.951183,0 3.472245,1.4899284 3.477587,3.4064055 0.0028,1.019167 -0.320879,1.817819 -1.017843,2.51114 -0.86753,0.862994 -2.190507,1.222528 -3.350596,0.910563 z"
       id="path4260"
       inkscape:connector-curvature="0"
       transform="translate(345.39121,408.56348)" />
    <path
       style="opacity:0.76470588;fill:#000000;fill-opacity:1;fill-rule:nonzero;stroke:#000000;stroke-width:0.13417566;stroke-linecap:butt;stroke-linejoin:bevel;stroke-miterlimit:4;stroke-dasharray:none;stroke-opacity:1"
       d="m 16.404546,20.990807 c -0.307593,-0.0489 -1.025723,-0.323146 -1.300647,-0.496699 -1.028628,-0.649344 -1.633328,-1.745888 -1.633328,-2.961825 0,-0.987753 0.442016,-1.988004 1.151296,-2.6053 0.43319,-0.377013 1.216172,-0.737272 1.827481,-0.840847 1.339491,-0.226953 2.886729,0.545933 3.54875,1.772694 0.54663,1.012936 0.54663,2.333969 0,3.346905 -0.664613,1.231564 -2.218865,2.003627 -3.593552,1.785072 z"
       id="path4262"
       inkscape:connector-curvature="0"
       transform="translate(345.39121,408.56348)" />
    <path
       style="opacity:0.76470588;fill:#000000;fill-opacity:1;fill-rule:nonzero;stroke:#000000;stroke-width:0.13417566;stroke-linecap:butt;stroke-linejoin:bevel;stroke-miterlimit:4;stroke-dasharray:none;stroke-opacity:1"
       d="m 16.368765,29.190387 c -0.93785,-0.137871 -2.029252,-0.908508 -2.484367,-1.754209 -0.550535,-1.023009 -0.551655,-2.270692 -0.003,-3.35411 0.262628,-0.518618 0.964613,-1.18753 1.521316,-1.44964 1.045572,-0.492284 2.022193,-0.496887 3.046269,-0.01436 2.153751,1.014813 2.63557,3.934287 0.926265,5.612486 -0.789417,0.775052 -1.884728,1.124736 -3.00647,0.959832 z"
       id="path4264"
       inkscape:connector-curvature="0"
       transform="translate(345.39121,408.56348)" />
    <path
       style="opacity:0.76470588;fill:#000000;fill-opacity:1;fill-rule:nonzero;stroke:#000000;stroke-width:0.13417566;stroke-linecap:butt;stroke-linejoin:bevel;stroke-miterlimit:4;stroke-dasharray:none;stroke-opacity:1"
       d="m 16.096727,49.441364 c -0.564255,-0.132789 -1.084854,-0.44417 -1.594222,-0.953538 -0.740406,-0.740406 -1.027506,-1.420614 -1.029335,-2.438743 -0.0034,-1.908247 1.557832,-3.470677 3.468078,-3.470677 1.902582,0 3.473013,1.568597 3.469828,3.465775 -0.0017,0.987746 -0.310906,1.719494 -1.03272,2.443645 -0.520259,0.521944 -1.022085,0.817701 -1.622163,0.956041 -0.378546,0.08727 -1.283799,0.0859 -1.659466,-0.0025 z"
       id="path4266"
       inkscape:connector-curvature="0"
       transform="translate(345.39121,408.56348)" />
    <path
       style="opacity:0.76470588;fill:#000000;fill-opacity:1;fill-rule:nonzero;stroke:#000000;stroke-width:0.13417566;stroke-linecap:butt;stroke-linejoin:bevel;stroke-miterlimit:4;stroke-dasharray:none;stroke-opacity:1"
       d="m 16.065675,57.782004 c -0.605177,-0.162981 -1.094343,-0.45092 -1.564105,-0.920682 -0.898966,-0.898966 -1.239654,-2.145229 -0.920939,-3.36886 0.205898,-0.790496 0.801454,-1.587475 1.535828,-2.055264 0.995136,-0.63389 2.485853,-0.654626 3.552289,-0.04941 1.031012,0.585109 1.657347,1.610243 1.725066,2.823446 0.03995,0.715675 -0.0633,1.204491 -0.391033,1.851233 -0.227319,0.448592 -0.941964,1.161065 -1.421002,1.416683 -0.745766,0.397946 -1.725251,0.515845 -2.516104,0.302858 z"
       id="path4268"
       inkscape:connector-curvature="0"
       transform="translate(345.39121,408.56348)" />
  </g>
</svg>
