<svg xmlns="http://www.w3.org/2000/svg" width="622" height="331.41" viewBox="0 0 622 331.41">
  <title>Asset 22BihStarsAndTriangle</title>
  <g id="Layer_2" data-name="Layer 2">
    <g id="Score">
      <g id="page5">
        <g id="BihFlag">
          <rect x="475.83" y="12.63" width="146.17" height="311" style="fill: none"/>
          <path d="M119.59,12.63,126.22,33,108.85,20.42,91.48,33l6.63-20.4H0v311H408.28L390.21,310.5h22.64l7-21.53,7,21.53h22.64l-18.07,13.13h44.41l-311-311Zm289.49,259.5-17.37,12.62,6.63,20.42L381,292.54l-17.37,12.62,6.63-20.42-17.37-12.62h21.47L381,251.71l6.63,20.42ZM370.2,233.25l-17.37,12.62,6.63,20.42L342.1,253.67l-17.37,12.62,6.63-20.42L314,233.25h21.47l6.63-20.42,6.63,20.42Zm-38.87-38.87L314,207l6.63,20.42-17.37-12.62-17.37,12.62L292.49,207l-17.37-12.62h21.47L303.23,174l6.63,20.42ZM292.45,155.5l-17.37,12.62,6.63,20.42-17.37-12.62L247,188.53l6.63-20.42L236.25,155.5h21.47l6.63-20.42L271,155.5Zm-38.87-38.88-17.37,12.62,6.63,20.42L225.48,137l-17.37,12.62,6.63-20.42-17.37-12.62h21.47l6.63-20.42,6.63,20.42ZM214.7,77.75,197.33,90.37,204,110.78,186.6,98.17l-17.37,12.62,6.63-20.42L158.5,77.75H180l6.63-20.42,6.63,20.42Zm-49.61-5.84L147.73,59.29,130.36,71.91,137,51.49,119.63,38.88h21.47l6.63-20.42,6.63,20.42h21.47L158.46,51.49Z" style="fill: none"/>
          <polygon points="164.83 12.63 475.83 323.63 475.83 12.63 164.83 12.63" style="fill: #fecb00"/>
          <polygon points="119.59 12.63 119.58 12.62 119.57 12.63 119.59 12.63" style="fill: none"/>
          <polygon points="119.57 12.63 119.58 12.62 98.12 12.62 98.13 12.63 119.57 12.63" style="fill: none"/>
          <polygon points="98.12 12.62 98.11 12.63 98.13 12.63 98.12 12.62" style="fill: none"/>
          <path d="M98.12,12.62" style="fill: none"/>
          <path d="M115.48,0" style="fill: none"/>
          <line x1="115.48" x2="119.58" y2="12.62" style="fill: none"/>
          <polygon points="108.85 20.41 98.13 12.63 98.11 12.63 91.48 33.03 108.85 20.41" style="fill: none"/>
          <polygon points="108.85 20.41 126.22 33.03 119.59 12.63 119.57 12.63 108.85 20.41" style="fill: none"/>
          <polygon points="98.13 12.63 108.85 20.41 119.57 12.63 98.13 12.63" style="fill: none"/>
          <polygon points="130.36 71.91 147.72 59.29 136.99 51.49 130.36 71.91" style="fill: #fff"/>
          <polygon points="119.63 38.88 136.99 51.49 141.09 38.88 119.63 38.88" style="fill: #fff"/>
          <polygon points="154.36 38.88 158.46 51.49 175.82 38.88 154.36 38.88" style="fill: #fff"/>
          <polygon points="141.09 38.88 136.99 51.49 147.72 59.29 158.46 51.49 154.36 38.88 141.09 38.88" style="fill: #fff"/>
          <polygon points="147.72 18.46 141.09 38.88 154.36 38.88 147.72 18.46" style="fill: #fff"/>
          <polygon points="165.09 71.91 158.46 51.49 147.72 59.29 165.09 71.91" style="fill: #fff"/>
          <polygon points="169.23 110.78 186.6 98.17 175.87 90.37 169.23 110.78" style="fill: #fff"/>
          <polygon points="179.97 77.75 193.23 77.75 186.6 57.34 179.97 77.75" style="fill: #fff"/>
          <polygon points="158.5 77.75 175.87 90.37 179.97 77.75 158.5 77.75" style="fill: #fff"/>
          <polygon points="175.87 90.37 186.6 98.17 197.33 90.37 193.23 77.75 179.97 77.75 175.87 90.37" style="fill: #fff"/>
          <polygon points="214.7 77.75 193.23 77.75 197.33 90.37 214.7 77.75" style="fill: #fff"/>
          <polygon points="203.97 110.78 197.33 90.37 186.6 98.17 203.97 110.78" style="fill: #fff"/>
          <polygon id="TopMiddle3" points="208.11 149.66 225.47 137.04 214.74 129.24 208.11 149.66" style="fill: #fff"/>
          <polygon points="214.74 129.24 225.47 137.04 236.21 129.24 232.11 116.63 218.84 116.63 214.74 129.24" style="fill: #fff"/>
          <polygon points="253.57 116.63 232.11 116.63 236.21 129.24 253.57 116.63" style="fill: #fff"/>
          <polygon points="218.84 116.63 232.11 116.63 225.47 96.21 218.84 116.63" style="fill: #fff"/>
          <polygon points="242.84 149.66 236.21 129.24 225.47 137.04 242.84 149.66" style="fill: #fff"/>
          <polygon points="197.38 116.63 214.74 129.24 218.84 116.63 197.38 116.63" style="fill: #fff"/>
          <polygon points="253.62 168.12 264.35 175.91 275.08 168.12 270.98 155.5 257.72 155.5 253.62 168.12" style="fill: #fff"/>
          <polygon points="236.25 155.5 253.62 168.12 257.72 155.5 236.25 155.5" style="fill: #fff"/>
          <polygon points="257.72 155.5 270.98 155.5 264.35 135.09 257.72 155.5" style="fill: #fff"/>
          <polygon points="292.45 155.5 270.98 155.5 275.08 168.12 292.45 155.5" style="fill: #fff"/>
          <polygon points="281.72 188.53 275.08 168.12 264.35 175.91 281.72 188.53" style="fill: #fff"/>
          <polygon points="246.98 188.53 264.35 175.91 253.62 168.12 246.98 188.53" style="fill: #fff"/>
          <polygon points="296.59 194.38 309.86 194.38 303.23 173.96 296.59 194.38" style="fill: #fff"/>
          <polygon points="331.32 194.38 309.86 194.38 313.96 206.99 331.32 194.38" style="fill: #fff"/>
          <polygon points="320.59 227.41 313.96 206.99 303.23 214.79 320.59 227.41" style="fill: #fff"/>
          <polygon points="285.86 227.41 303.23 214.79 292.49 206.99 285.86 227.41" style="fill: #fff"/>
          <polygon points="275.13 194.38 292.49 206.99 296.59 194.38 275.13 194.38" style="fill: #fff"/>
          <polygon id="BottomMiddle3" points="292.49 206.99 303.23 214.79 313.96 206.99 309.86 194.38 296.59 194.38 292.49 206.99" style="fill: #fff"/>
          <polygon points="335.47 233.25 348.73 233.25 342.1 212.84 335.47 233.25" style="fill: #fff"/>
          <polygon points="331.37 245.87 342.1 253.66 352.83 245.87 348.73 233.25 335.47 233.25 331.37 245.87" style="fill: #fff"/>
          <polygon points="314 233.25 331.37 245.87 335.47 233.25 314 233.25" style="fill: #fff"/>
          <polygon points="324.73 266.28 342.1 253.66 331.37 245.87 324.73 266.28" style="fill: #fff"/>
          <polygon points="370.2 233.25 348.73 233.25 352.83 245.87 370.2 233.25" style="fill: #fff"/>
          <polygon points="359.47 266.28 352.83 245.87 342.1 253.66 359.47 266.28" style="fill: #fff"/>
          <polygon points="374.34 272.13 387.61 272.13 380.98 251.71 374.34 272.13" style="fill: #fff"/>
          <polygon points="370.24 284.74 380.98 292.54 391.71 284.74 387.61 272.13 374.34 272.13 370.24 284.74" style="fill: #fff"/>
          <polygon points="363.61 305.16 380.98 292.54 370.24 284.74 363.61 305.16" style="fill: #fff"/>
          <polygon points="352.88 272.13 370.24 284.74 374.34 272.13 352.88 272.13" style="fill: #fff"/>
          <polygon points="398.34 305.16 391.71 284.74 380.98 292.54 398.34 305.16" style="fill: #fff"/>
          <polygon points="409.07 272.13 387.61 272.13 391.71 284.74 409.07 272.13" style="fill: #fff"/>
          <line x1="429.72" y1="323.63" x2="409.98" y2="323.63" style="fill: #fff"/>
          <line x1="420.7" y1="331.41" x2="430.32" y2="324.43" style="fill: #fff"/>
          <polygon points="393.29 311.5 408.85 322.81 412.53 311.5 393.29 311.5" style="fill: #fff"/>
          <polygon points="419.85 292.2 413.9 310.5 425.8 310.5 419.85 292.2" style="fill: #fff"/>
          <polygon points="446.41 311.5 427.17 311.5 430.85 322.81 446.41 311.5" style="fill: #fff"/>
          <polygon points="430 323.43 426.12 311.5 413.58 311.5 409.7 323.43 409.98 323.63 429.72 323.63 430 323.43" style="fill: #fff"/>
          <polygon points="409.11 323.63 408.28 323.63 408.53 323.81 431.17 323.81 431.42 323.63 430.59 323.63 409.11 323.63" style="fill: #fff"/>
          <polygon points="426.85 310.5 419.85 288.97 412.85 310.5 390.21 310.5 408.28 323.63 409.11 323.63 409.12 323.62 391.75 311 413.22 311 419.85 290.58 426.48 311 447.95 311 430.58 323.62 430.59 323.63 431.42 323.63 449.49 310.5 426.85 310.5" style="fill: #fff"/>
          <path d="M409.13,323.63h0m.27.8" style="fill: #fff"/>
          <path d="M430.59,323.63h0m-.25.8" style="fill: #fff"/>
          <polygon points="429.72 323.63 409.98 323.63 409.13 323.63 430.57 323.63 429.72 323.63" style="fill: #fff"/>
          <path d="M419.85,290.58,413.22,311h13.27Zm0,1.62,5.95,18.3H413.9Z" style="fill: #fff"/>
          <path d="M447.95,311H426.48l4.1,12.62Zm-1.54.5-15.56,11.31-3.67-11.31Z" style="fill: #fff"/>
          <path d="M391.75,311l17.37,12.62,4.1-12.62Zm1.54.5h19.24l-3.67,11.31Z" style="fill: #fff"/>
          <polygon points="430.59 323.63 430.58 323.62 430.57 323.63 430.59 323.63" style="fill: #fff"/>
          <polygon points="409.98 323.63 409.7 323.43 413.58 311.5 426.12 311.5 430 323.43 429.72 323.63 430.57 323.63 430.58 323.62 426.48 311 413.22 311 409.12 323.62 409.13 323.63 409.98 323.63" style="fill: #fff"/>
          <polygon points="409.12 323.62 409.11 323.63 409.13 323.63 409.12 323.62" style="fill: #fff"/>
        </g>
      </g>
    </g>
  </g>
</svg>
