<svg xmlns="http://www.w3.org/2000/svg" width="358" height="331.41" viewBox="0 0 358 331.41">
  <title>Asset 12BihStars</title>
  <g id="Layer_2" data-name="Layer 2">
    <g id="Score">
      <g id="page5">
        <g id="BihStars">
          <polygon points="28.1 12.63 28.1 12.62 28.08 12.63 28.1 12.63" style="fill: #fff"/>
          <polygon points="28.08 12.63 28.1 12.62 6.63 12.62 6.65 12.63 28.08 12.63" style="fill: #fff"/>
          <polygon points="6.63 12.62 6.63 12.63 6.65 12.63 6.63 12.62" style="fill: #fff"/>
          <path d="M6.63,12.62" style="fill: #fff"/>
          <path d="M24,0" style="fill: #fff"/>
          <line x1="24" x2="28.1" y2="12.62" style="fill: #fff"/>
          <polygon points="17.37 20.41 6.65 12.63 6.63 12.63 0 33.03 17.37 20.41" style="fill: #fff"/>
          <polygon points="17.37 20.41 34.73 33.03 28.1 12.63 28.08 12.63 17.37 20.41" style="fill: #fff"/>
          <polygon points="6.65 12.63 17.37 20.41 28.08 12.63 6.65 12.63" style="fill: #fff"/>
          <polygon points="38.88 71.91 56.24 59.29 45.51 51.49 38.88 71.91" style="fill: #fff"/>
          <polygon points="28.14 38.88 45.51 51.49 49.61 38.88 28.14 38.88" style="fill: #fff"/>
          <polygon points="62.87 38.88 66.97 51.49 84.34 38.88 62.87 38.88" style="fill: #fff"/>
          <polygon points="49.61 38.88 45.51 51.49 56.24 59.29 66.97 51.49 62.87 38.88 49.61 38.88" style="fill: #fff"/>
          <polygon points="56.24 18.46 49.61 38.88 62.87 38.88 56.24 18.46" style="fill: #fff"/>
          <polygon points="73.61 71.91 66.97 51.49 56.24 59.29 73.61 71.91" style="fill: #fff"/>
          <polygon points="77.75 110.78 95.12 98.17 84.38 90.37 77.75 110.78" style="fill: #fff"/>
          <polygon points="88.48 77.75 101.75 77.75 95.12 57.34 88.48 77.75" style="fill: #fff"/>
          <polygon points="67.02 77.75 84.38 90.37 88.48 77.75 67.02 77.75" style="fill: #fff"/>
          <polygon points="84.38 90.37 95.12 98.17 105.85 90.37 101.75 77.75 88.48 77.75 84.38 90.37" style="fill: #fff"/>
          <polygon points="123.22 77.75 101.75 77.75 105.85 90.37 123.22 77.75" style="fill: #fff"/>
          <polygon points="112.48 110.78 105.85 90.37 95.12 98.17 112.48 110.78" style="fill: #fff"/>
          <polygon points="116.63 149.66 133.99 137.04 123.26 129.24 116.63 149.66" style="fill: #fff"/>
          <polygon points="123.26 129.24 133.99 137.04 144.72 129.24 140.62 116.63 127.36 116.63 123.26 129.24" style="fill: #fff"/>
          <polygon points="162.09 116.63 140.62 116.63 144.72 129.24 162.09 116.63" style="fill: #fff"/>
          <polygon points="127.36 116.63 140.62 116.63 133.99 96.21 127.36 116.63" style="fill: #fff"/>
          <polygon points="151.36 149.66 144.72 129.24 133.99 137.04 151.36 149.66" style="fill: #fff"/>
          <polygon points="105.89 116.63 123.26 129.24 127.36 116.63 105.89 116.63" style="fill: #fff"/>
          <polygon points="162.13 168.12 172.87 175.91 183.6 168.12 179.5 155.5 166.23 155.5 162.13 168.12" style="fill: #fff"/>
          <polygon points="144.77 155.5 162.13 168.12 166.23 155.5 144.77 155.5" style="fill: #fff"/>
          <polygon points="166.23 155.5 179.5 155.5 172.87 135.09 166.23 155.5" style="fill: #fff"/>
          <polygon points="200.97 155.5 179.5 155.5 183.6 168.12 200.97 155.5" style="fill: #fff"/>
          <polygon points="190.23 188.53 183.6 168.12 172.87 175.91 190.23 188.53" style="fill: #fff"/>
          <polygon points="155.5 188.53 172.87 175.91 162.13 168.12 155.5 188.53" style="fill: #fff"/>
          <polygon points="205.11 194.38 218.37 194.38 211.74 173.96 205.11 194.38" style="fill: #fff"/>
          <polygon points="239.84 194.38 218.37 194.38 222.47 206.99 239.84 194.38" style="fill: #fff"/>
          <polygon points="229.11 227.41 222.47 206.99 211.74 214.79 229.11 227.41" style="fill: #fff"/>
          <polygon points="194.38 227.41 211.74 214.79 201.01 206.99 194.38 227.41" style="fill: #fff"/>
          <polygon points="183.64 194.38 201.01 206.99 205.11 194.38 183.64 194.38" style="fill: #fff"/>
          <polygon points="201.01 206.99 211.74 214.79 222.47 206.99 218.37 194.38 205.11 194.38 201.01 206.99" style="fill: #fff"/>
          <polygon points="243.98 233.25 257.25 233.25 250.62 212.84 243.98 233.25" style="fill: #fff"/>
          <polygon points="239.88 245.87 250.62 253.66 261.35 245.87 257.25 233.25 243.98 233.25 239.88 245.87" style="fill: #fff"/>
          <polygon points="222.52 233.25 239.88 245.87 243.98 233.25 222.52 233.25" style="fill: #fff"/>
          <polygon points="233.25 266.28 250.62 253.66 239.88 245.87 233.25 266.28" style="fill: #fff"/>
          <polygon points="278.71 233.25 257.25 233.25 261.35 245.87 278.71 233.25" style="fill: #fff"/>
          <polygon points="267.98 266.28 261.35 245.87 250.62 253.66 267.98 266.28" style="fill: #fff"/>
          <polygon points="282.86 272.13 296.12 272.13 289.49 251.71 282.86 272.13" style="fill: #fff"/>
          <polygon points="278.76 284.74 289.49 292.54 300.22 284.74 296.12 272.13 282.86 272.13 278.76 284.74" style="fill: #fff"/>
          <polygon points="272.13 305.16 289.49 292.54 278.76 284.74 272.13 305.16" style="fill: #fff"/>
          <polygon points="261.39 272.13 278.76 284.74 282.86 272.13 261.39 272.13" style="fill: #fff"/>
          <polygon points="306.86 305.16 300.22 284.74 289.49 292.54 306.86 305.16" style="fill: #fff"/>
          <polygon points="317.59 272.13 296.12 272.13 300.22 284.74 317.59 272.13" style="fill: #fff"/>
          <line x1="338.23" y1="323.63" x2="318.5" y2="323.63" style="fill: #fff"/>
          <line x1="329.22" y1="331.41" x2="338.84" y2="324.43" style="fill: #fff"/>
          <polygon points="301.81 311.5 317.37 322.81 321.05 311.5 301.81 311.5" style="fill: #fff"/>
          <polygon points="328.37 292.2 322.42 310.5 334.31 310.5 328.37 292.2" style="fill: #fff"/>
          <polygon points="354.93 311.5 335.69 311.5 339.36 322.81 354.93 311.5" style="fill: #fff"/>
          <polygon points="338.51 323.43 334.64 311.5 322.1 311.5 318.22 323.43 318.5 323.63 338.23 323.63 338.51 323.43" style="fill: #fff"/>
          <polygon points="317.63 323.63 316.8 323.63 317.05 323.81 339.69 323.81 339.93 323.63 339.1 323.63 317.63 323.63" style="fill: #fff"/>
          <polygon points="335.36 310.5 328.37 288.97 321.37 310.5 298.73 310.5 316.8 323.63 317.63 323.63 317.63 323.62 300.27 311 321.73 311 328.37 290.58 335 311 356.46 311 339.1 323.62 339.1 323.63 339.93 323.63 358 310.5 335.36 310.5" style="fill: #fff"/>
          <path d="M317.65,323.63h0m.27.8" style="fill: #fff"/>
          <path d="M339.1,323.63h0m-.25.8" style="fill: #fff"/>
          <polygon points="338.23 323.63 318.5 323.63 317.65 323.63 339.08 323.63 338.23 323.63" style="fill: #fff"/>
          <path d="M328.37,290.58,321.73,311H335Zm0,1.62,5.95,18.3H322.42Z" style="fill: #fff"/>
          <path d="M356.47,311H335l4.1,12.62Zm-1.54.5-15.56,11.31-3.67-11.31Z" style="fill: #fff"/>
          <path d="M300.27,311l17.37,12.62,4.1-12.62Zm1.54.5H321l-3.67,11.31Z" style="fill: #fff"/>
          <polygon points="339.1 323.63 339.1 323.62 339.08 323.63 339.1 323.63" style="fill: #fff"/>
          <polygon points="318.5 323.63 318.22 323.43 322.1 311.5 334.64 311.5 338.51 323.43 338.23 323.63 339.08 323.63 339.1 323.62 335 311 321.73 311 317.63 323.62 317.65 323.63 318.5 323.63" style="fill: #fff"/>
          <polygon points="317.63 323.62 317.63 323.63 317.65 323.63 317.63 323.62" style="fill: #fff"/>
        </g>
      </g>
    </g>
  </g>
</svg>
