<svg xmlns="http://www.w3.org/2000/svg" width="270.61" height="268.67" viewBox="0 0 270.61 268.67">
  <title>Asset 9EuStarsRight</title>
  <g id="Layer_2" data-name="Layer 2">
    <g id="Score">
      <g id="page5">
        <g id="EU_Stars" data-name="EU Stars">
          <path d="M135.4,0l4.28,13.42h14.2l-11.48,8.37,4.28,13.42-11.48-8.37-11.48,8.37L128,21.79l-11.48-8.37h14.2Z" style="fill: #ffef52"/>
          <path d="M236.57,175.09l4.28,13.42H255l-11.48,8.37,4.28,13.42-11.48-8.37-11.48,8.37,4.28-13.42-11.48-8.37h14.2Z" style="fill: #ffef52"/>
          <path d="M135.4,233.45l4.28,13.42h14.2l-11.48,8.37,4.28,13.42-11.48-8.37-11.48,8.37L128,255.24l-11.48-8.37h14.2Z" style="fill: #ffef52"/>
          <path d="M252.13,116.73l4.28,13.42h14.2l-11.48,8.37,4.28,13.42-11.48-8.37-11.48,8.37,4.28-13.42-11.48-8.37h14.2Z" style="fill: #ffef52"/>
          <path d="M18.68,116.73,23,130.15h14.2l-11.48,8.37L30,151.94l-11.28-8.37L7.2,151.94l4.28-13.42L0,130.15H14.2Z" style="fill: none"/>
          <path d="M193.77,15.56,198,29h14.2l-11.48,8.37L205,50.78l-11.48-8.37-11.48,8.37,4.28-13.42L174.9,29h14.2Z" style="fill: #ffef52"/>
          <path d="M77,15.56,81.32,29h14.2L84,37.35l4.28,13.42L76.85,42.41,65.37,50.78l4.28-13.42L58.17,29h14.2Z" style="fill: none"/>
          <path d="M77,217.89l4.28,13.42h14.2L84,239.68l4.28,13.42-11.48-8.37L65.37,253.1l4.28-13.42-11.48-8.37h14.2Z" style="fill: none"/>
          <path d="M193.77,217.89,198,231.31h14.2l-11.48,8.37L205,253.1l-11.48-8.37-11.48,8.37,4.28-13.42-11.48-8.37h14.2Z" style="fill: #ffef52"/>
          <path d="M236.57,58.36l4.28,13.42H255l-11.48,8.37,4.28,13.42-11.48-8.37-11.48,8.37,4.28-13.42L217.7,71.79h14.2Z" style="fill: #ffef52"/>
          <path d="M34.24,58.36l4.28,13.42h14.2L41.24,80.15l4.28,13.42L34.24,85.21,22.76,93.58,27,80.15,15.56,71.79h14.2Z" style="fill: none"/>
          <path d="M34.24,175.09l4.28,13.42h14.2l-11.48,8.37,4.28,13.42L34,201.94,22.57,210.3l4.28-13.42-11.48-8.37h14.2Z" style="fill: none"/>
        </g>
      </g>
    </g>
  </g>
</svg>
