<svg xmlns="http://www.w3.org/2000/svg" width="482.42" height="360.72" viewBox="0 0 482.42 360.72">
  <title>Asset 29UkFlagNoMiddle</title>
  <g id="Layer_2" data-name="Layer 2">
    <g id="Score">
      <g id="page8">
        <g id="UK_Flag" data-name="UK Flag">
          <polygon points="51.26 360.72 203.15 360.72 203.15 247.12 51.26 360.72" style="fill: #00247d"/>
          <polygon points="203.15 0 51.26 0 203.15 113.61 203.15 0" style="fill: #00247d"/>
          <polygon points="482.42 322.48 482.42 237.38 368.63 237.38 482.42 322.48" style="fill: #00247d"/>
          <polygon points="0.12 38.25 0.12 123.35 113.9 123.35 0.12 38.25" style="fill: #00247d"/>
          <polygon points="0.12 237.38 0.12 322.48 113.9 237.38 0.12 237.38" style="fill: #00247d"/>
          <polygon points="482.42 123.35 482.42 38.25 368.63 123.35 482.42 123.35" style="fill: #00247d"/>
          <polygon points="279.38 360.72 431.28 360.72 279.38 247.12 279.38 360.72" style="fill: #00247d"/>
          <polygon points="431.28 0 279.38 0 279.38 113.61 431.28 0" style="fill: #00247d"/>
          <polygon points="241.27 0 218.4 0 218.4 125.01 241.27 142.11 241.27 0" style="fill: #cf142b"/>
          <polygon points="264.14 125.01 264.14 0 241.27 0 241.27 142.11 264.14 125.01" style="fill: #cf142b"/>
          <polygon points="218.4 235.71 218.4 360.72 241.27 360.72 241.27 218.61 218.4 235.71" style="fill: #cf142b"/>
          <polygon points="241.27 360.72 264.14 360.72 264.14 235.71 241.27 218.61 241.27 360.72" style="fill: #cf142b"/>
          <polygon points="0.12 0.09 0.1 0.07 0 0.36 0.12 25.28 0.12 0.09" style="fill: #cf142b"/>
          <polygon points="320.93 123.35 482.42 0.57 482.42 0.48 481.79 0.47 317.53 123.32 320.49 123.35 320.93 123.35" style="fill: #cf142b"/>
          <polygon points="318.05 237.38 482.42 360.72 482.42 335.22 351.59 237.38 318.05 237.38" style="fill: #cf142b"/>
          <polygon points="166.35 237.38 0.12 360.72 34.21 360.72 199.13 237.38 166.35 237.38" style="fill: #cf142b"/>
          <polygon points="448.32 0 283.78 123.07 317.53 123.32 481.79 0.47 448.32 0" style="fill: #cf142b"/>
          <polygon points="0.12 25.5 130.57 123.06 164.28 123.06 0.12 0.09 0.12 25.28 0.12 25.5" style="fill: #cf142b"/>
          <polygon points="313.12 233.67 318.05 237.38 351.59 237.38 346.05 233.23 313.12 233.67" style="fill: #cf142b"/>
          <polygon points="320.93 123.35 320.93 123.35 320.49 123.35 320.93 123.35" style="fill: #cf142b"/>
          <polygon points="201.44 235.64 169.42 235.1 166.35 237.38 199.13 237.38 201.44 235.64" style="fill: #cf142b"/>
        </g>
      </g>
    </g>
  </g>
</svg>
