<svg xmlns="http://www.w3.org/2000/svg" width="482.29" height="360.72" viewBox="0 0 482.29 360.72">
  <title>Asset 27UkFlagBlue</title>
  <g id="Layer_2" data-name="Layer 2">
    <g id="Score">
      <g id="page8">
        <g id="UK_Flag" data-name="UK Flag">
          <polygon points="51.14 360.72 203.03 360.72 203.03 247.12 51.14 360.72" style="fill: #00247d"/>
          <polygon points="203.03 0 51.14 0 203.03 113.61 203.03 0" style="fill: #00247d"/>
          <polygon points="482.29 322.48 482.29 237.38 368.51 237.38 482.29 322.48" style="fill: #00247d"/>
          <polygon points="0 38.25 0 123.35 113.78 123.35 0 38.25" style="fill: #00247d"/>
          <polygon points="0 237.38 0 322.48 113.78 237.38 0 237.38" style="fill: #00247d"/>
          <polygon points="482.29 123.35 482.29 38.25 368.51 123.35 482.29 123.35" style="fill: #00247d"/>
          <polygon points="279.26 360.72 431.16 360.72 279.26 247.12 279.26 360.72" style="fill: #00247d"/>
          <polygon points="431.16 0 279.26 0 279.26 113.61 431.16 0" style="fill: #00247d"/>
        </g>
      </g>
    </g>
  </g>
</svg>
