<svg xmlns="http://www.w3.org/2000/svg" width="482.54" height="360.72" viewBox="0 0 482.54 360.72">
  <title>Asset 24UkFlag</title>
  <g id="Layer_2" data-name="Layer 2">
    <g id="Score">
      <g id="page8">
        <g id="UK_Flag" data-name="UK Flag">
          <polygon points="0 0 0 0.36 0.1 0.07 0 0" style="fill: none"/>
          <polygon points="51.26 360.72 203.15 360.72 203.15 247.12 51.26 360.72" style="fill: #00247d"/>
          <polygon points="203.15 0 51.26 0 203.15 113.61 203.15 0" style="fill: #00247d"/>
          <polygon points="482.42 322.48 482.42 237.38 368.64 237.38 482.42 322.48" style="fill: #00247d"/>
          <polygon points="0.12 38.25 0.12 123.35 113.9 123.35 0.12 38.25" style="fill: #00247d"/>
          <polygon points="0.12 237.38 0.12 322.48 113.9 237.38 0.12 237.38" style="fill: #00247d"/>
          <polygon points="482.42 123.35 482.42 38.25 368.64 123.35 482.42 123.35" style="fill: #00247d"/>
          <polygon points="279.38 360.72 431.28 360.72 279.38 247.12 279.38 360.72" style="fill: #00247d"/>
          <polygon points="431.28 0 279.38 0 279.38 113.61 431.28 0" style="fill: #00247d"/>
          <polygon points="482.42 0 482.42 0.48 482.54 0.48 482.42 0.57 482.42 38.25 431.28 0 448.11 0 482.42 0" style="fill: #fff"/>
          <polygon points="0.07 25.46 0.07 25.46 0.12 25.5 0.12 25.5 0.07 25.46" style="fill: #fff"/>
          <polygon points="0.12 0 51.26 0 0.1 0.07 0.12 0.09 0.12 0" style="fill: #fff"/>
          <polygon points="0.07 25.46 0.07 25.46 0.07 25.18 0.12 25.28 0 0.36 0.12 38.25 0.12 25.5 0.07 25.46" style="fill: #fff"/>
          <polygon points="482.42 334.59 482.42 335.22 482.42 360.72 431.28 360.72 482.42 322.48 482.42 334.59" style="fill: #fff"/>
          <polygon points="34.21 360.72 0.12 360.72 0.12 322.48 51.26 360.72 38.12 360.72 34.21 360.72" style="fill: #fff"/>
          <polygon points="481.79 0.47 482.42 0 448.11 0 448.32 0 481.79 0.47" style="fill: #fff"/>
          <polygon points="165.04 123.35 203.15 123.35 203.15 113.61 51.26 0 0.12 0 165.04 123.35" style="fill: #fff"/>
          <polygon points="448.11 0 283.32 123.06 283.78 123.07 448.32 0 448.11 0" style="fill: #fff"/>
          <polygon points="165.04 237.38 0.12 360.72 166.35 237.38 165.04 237.38" style="fill: #fff"/>
          <polygon points="279.38 123.35 317.5 123.35 317.53 123.32 283.78 123.07 283.32 123.06 448.11 0 431.28 0 279.38 113.61 279.38 123.35" style="fill: #fff"/>
          <polygon points="482.42 0.48 482.42 0 481.79 0.47 482.42 0.48" style="fill: #fff"/>
          <polygon points="317.53 123.32 317.5 123.35 320.49 123.35 317.53 123.32" style="fill: #fff"/>
          <polygon points="320.94 123.35 368.64 123.35 482.42 38.25 482.42 0.57 320.94 123.35" style="fill: #fff"/>
          <polygon points="317.5 237.38 279.38 237.38 279.38 247.12 431.28 360.72 482.42 360.72 317.5 237.38" style="fill: #fff"/>
          <polygon points="317.5 237.38 482.42 360.72 318.05 237.38 317.5 237.38" style="fill: #fff"/>
          <polygon points="351.59 237.38 482.42 335.22 482.42 334.59 361.14 237.38 351.59 237.38" style="fill: #fff"/>
          <polygon points="34.21 360.72 38.12 360.72 200.71 237.38 199.13 237.38 34.21 360.72" style="fill: #fff"/>
          <polygon points="165.04 237.38 113.9 237.38 0.12 322.48 0.12 360.72 165.04 237.38" style="fill: #fff"/>
          <polygon points="165.04 123.35 0.12 0 0.12 0.09 164.28 123.06 130.57 123.06 128.45 123.06 0.12 25.5 0.12 38.25 113.9 123.35 165.04 123.35" style="fill: #fff"/>
          <polygon points="203.15 237.38 200.71 237.38 38.12 360.72 51.26 360.72 203.15 247.12 203.15 237.38" style="fill: #fff"/>
          <polygon points="361.14 237.38 482.42 334.59 482.42 322.48 368.64 237.38 361.14 237.38" style="fill: #fff"/>
          <polygon points="0.12 25.5 128.45 123.06 130.57 123.06 0.12 25.5 0.12 25.5" style="fill: #fff"/>
          <rect x="482.42" y="214.57" height="22.81" style="fill: #fff"/>
          <rect x="482.42" y="123.35" height="22.81" style="fill: #fff"/>
          <rect x="0.12" y="214.57" height="22.81" style="fill: #fff"/>
          <rect x="264.14" y="360.72" width="15.25" style="fill: #fff"/>
          <rect x="203.15" y="360.72" width="15.25" style="fill: #fff"/>
          <rect x="0.12" y="123.35" height="22.81" style="fill: #fff"/>
          <rect x="264.14" width="15.25" style="fill: #fff"/>
          <rect x="203.15" width="15.25" style="fill: #fff"/>
          <polygon points="218.4 235.71 203.15 247.12 203.15 360.72 218.4 360.72 218.4 235.71" style="fill: #fff"/>
          <polygon points="264.14 235.71 264.14 360.72 279.38 360.72 279.38 247.12 264.14 235.71" style="fill: #fff"/>
          <polygon points="338.14 146.15 482.42 146.15 482.42 123.35 368.64 123.35 338.14 146.15" style="fill: #fff"/>
          <polygon points="144.39 214.57 0.12 214.57 0.12 237.38 113.9 237.38 144.39 214.57" style="fill: #fff"/>
          <polygon points="144.39 146.15 113.9 123.35 0.12 123.35 0.12 146.15 144.39 146.15" style="fill: #fff"/>
          <polygon points="218.4 125.01 218.4 0 203.15 0 203.15 113.61 218.4 125.01" style="fill: #fff"/>
          <polygon points="264.14 125.01 279.38 113.61 279.38 0 264.14 0 264.14 125.01" style="fill: #fff"/>
          <polygon points="338.14 214.57 368.64 237.38 482.42 237.38 482.42 214.57 338.14 214.57" style="fill: #fff"/>
          <polygon points="195.53 214.57 165.04 237.38 166.35 237.38 169.42 235.1 201.45 235.64 202.96 235.67 200.71 237.38 203.15 237.38 203.15 247.12 218.4 235.71 218.4 214.57 195.53 214.57" style="fill: #fff"/>
          <polygon points="165.04 123.35 113.9 123.35 144.39 146.15 195.53 146.15 165.04 123.35" style="fill: #fff"/>
          <polygon points="144.39 214.57 113.9 237.38 165.04 237.38 195.53 214.57 144.39 214.57" style="fill: #fff"/>
          <polygon points="346.05 233.23 351.59 237.38 361.14 237.38 355.81 233.1 346.05 233.23" style="fill: #fff"/>
          <polygon points="218.4 146.15 218.4 125.01 203.15 113.61 203.15 123.35 165.04 123.35 195.53 146.15 218.4 146.15" style="fill: #fff"/>
          <polygon points="338.14 146.15 368.64 123.35 320.94 123.35 320.93 123.35 320.49 123.35 317.5 123.35 287.01 146.15 338.14 146.15" style="fill: #fff"/>
          <polygon points="287.01 146.15 317.5 123.35 279.38 123.35 279.38 113.61 264.14 125.01 264.14 146.15 287.01 146.15" style="fill: #fff"/>
          <polygon points="201.45 235.64 199.13 237.38 200.71 237.38 202.96 235.67 201.45 235.64" style="fill: #fff"/>
          <polygon points="264.14 214.57 264.14 235.71 279.38 247.12 279.38 237.38 317.5 237.38 287.01 214.57 264.14 214.57" style="fill: #fff"/>
          <polygon points="313.12 233.67 346.05 233.23 355.81 233.1 361.14 237.38 368.64 237.38 338.14 214.57 287.01 214.57 317.5 237.38 318.05 237.38 313.12 233.67" style="fill: #fff"/>
          <polygon points="241.27 360.72 218.4 360.72 218.4 360.72 264.14 360.72 264.14 360.72 241.27 360.72" style="fill: #cf142b"/>
          <polygon points="0.12 180.36 0.12 146.15 0.12 146.15 0.12 214.57 0.12 214.57 0.12 180.36" style="fill: #cf142b"/>
          <polygon points="241.27 0 264.14 0 264.14 0 218.4 0 218.4 0 241.27 0" style="fill: #cf142b"/>
          <polygon points="482.42 180.36 482.42 214.57 482.42 214.57 482.42 146.15 482.42 146.15 482.42 180.36" style="fill: #cf142b"/>
          <polygon points="241.27 0 218.4 0 218.4 125.01 241.27 142.11 241.27 0" style="fill: #cf142b"/>
          <polygon points="338.14 214.57 482.42 214.57 482.42 180.36 292.41 180.36 338.14 214.57" style="fill: #cf142b"/>
          <polygon points="264.14 125.01 264.14 0 241.27 0 241.27 142.11 264.14 125.01" style="fill: #cf142b"/>
          <polygon points="482.42 180.36 482.42 146.15 338.14 146.15 292.41 180.36 482.42 180.36" style="fill: #cf142b"/>
          <polygon points="0.12 180.36 0.12 214.57 144.39 214.57 190.13 180.36 0.12 180.36" style="fill: #cf142b"/>
          <polygon points="144.39 146.15 0.12 146.15 0.12 180.36 190.13 180.36 144.39 146.15" style="fill: #cf142b"/>
          <polygon points="218.4 235.71 218.4 360.72 241.27 360.72 241.27 218.61 218.4 235.71" style="fill: #cf142b"/>
          <polygon points="241.27 360.72 264.14 360.72 264.14 235.71 241.27 218.61 241.27 360.72" style="fill: #cf142b"/>
          <polygon points="241.27 180.36 292.41 180.36 338.14 146.15 287.01 146.15 241.27 180.36" style="fill: #cf142b"/>
          <polygon points="241.27 180.36 195.53 214.57 218.4 214.57 218.4 235.71 241.27 218.61 241.27 180.36" style="fill: #cf142b"/>
          <polygon points="241.27 180.36 287.01 214.57 338.14 214.57 292.41 180.36 241.27 180.36" style="fill: #cf142b"/>
          <polygon points="241.27 180.36 190.13 180.36 144.39 214.57 195.53 214.57 241.27 180.36" style="fill: #cf142b"/>
          <polygon points="195.53 146.15 241.27 180.36 241.27 142.11 218.4 125.01 218.4 146.15 195.53 146.15" style="fill: #cf142b"/>
          <polygon points="241.27 180.36 195.53 146.15 144.39 146.15 190.13 180.36 241.27 180.36" style="fill: #cf142b"/>
          <polygon points="241.27 180.36 287.01 146.15 264.14 146.15 264.14 125.01 241.27 142.11 241.27 180.36" style="fill: #cf142b"/>
          <polygon points="287.01 214.57 241.27 180.36 241.27 218.61 264.14 235.71 264.14 214.57 287.01 214.57" style="fill: #cf142b"/>
          <polygon points="482.54 0.48 482.42 0.48 482.42 0.57 482.54 0.48" style="fill: #cf142b"/>
          <polygon points="0.12 25.28 0.07 25.18 0.07 25.46 0.12 25.5 0.12 25.28" style="fill: #cf142b"/>
          <polygon points="0.12 0.09 0.1 0.07 0 0.36 0.12 25.28 0.12 0.09" style="fill: #cf142b"/>
          <polygon points="320.94 123.35 482.42 0.57 482.42 0.48 481.79 0.47 317.53 123.32 320.49 123.35 320.94 123.35" style="fill: #cf142b"/>
          <polygon points="318.05 237.38 482.42 360.72 482.42 335.22 351.59 237.38 318.05 237.38" style="fill: #cf142b"/>
          <polygon points="166.35 237.38 0.12 360.72 34.21 360.72 199.13 237.38 166.35 237.38" style="fill: #cf142b"/>
          <polygon points="448.32 0 283.78 123.07 317.53 123.32 481.79 0.47 448.32 0" style="fill: #cf142b"/>
          <polygon points="0.12 25.5 130.57 123.06 164.28 123.06 0.12 0.09 0.12 25.28 0.12 25.5" style="fill: #cf142b"/>
          <polygon points="313.12 233.67 318.05 237.38 351.59 237.38 346.05 233.23 313.12 233.67" style="fill: #cf142b"/>
          <polygon points="320.93 123.35 320.94 123.35 320.49 123.35 320.93 123.35" style="fill: #cf142b"/>
          <polygon points="201.45 235.64 169.42 235.1 166.35 237.38 199.13 237.38 201.45 235.64" style="fill: #cf142b"/>
        </g>
      </g>
    </g>
  </g>
</svg>
