<svg xmlns="http://www.w3.org/2000/svg" width="482.42" height="360.65" viewBox="0 0 482.42 360.65">
  <title>Asset 26UkFlagRedLineArrow</title>
  <g id="Layer_2" data-name="Layer 2">
    <g id="Score">
      <g id="page8">
        <g id="UK_Flag" data-name="UK Flag">
          <polygon points="0.12 0.02 0.1 0 0 0.29 0.12 25.21 0.12 0.02" style="fill: #cf142b"/>
          <polygon points="166.35 237.3 0.12 360.65 34.21 360.65 199.13 237.3 166.35 237.3" style="fill: #cf142b"/>
          <polygon points="0.12 25.43 130.57 122.99 164.28 122.99 0.12 0.02 0.12 25.21 0.12 25.43" style="fill: #cf142b"/>
          <polygon points="320.93 123.28 320.93 123.27 320.49 123.27 320.93 123.28" style="fill: #cf142b"/>
          <polygon points="201.44 235.57 169.42 235.03 166.35 237.3 199.13 237.3 201.44 235.57" style="fill: #cf142b"/>
          <g id="MiddleLine">
            <polygon points="338.14 214.5 482.42 214.5 482.42 180.29 292.4 180.29 338.14 214.5" style="fill: #cf142b"/>
            <polygon points="482.42 180.29 482.42 146.08 338.14 146.08 292.4 180.29 482.42 180.29" style="fill: #cf142b"/>
            <polygon points="0.12 180.29 0.12 214.5 144.39 214.5 190.13 180.29 0.12 180.29" style="fill: #cf142b"/>
            <polygon points="144.39 146.08 0.12 146.08 0.12 180.29 190.13 180.29 144.39 146.08" style="fill: #cf142b"/>
            <polygon points="241.27 180.29 292.4 180.29 338.14 146.08 287.01 146.08 241.27 180.29" style="fill: #cf142b"/>
            <polygon points="241.27 180.29 287.01 214.5 338.14 214.5 292.4 180.29 241.27 180.29" style="fill: #cf142b"/>
            <polygon points="241.27 180.29 190.13 180.29 144.39 214.5 195.53 214.5 241.27 180.29" style="fill: #cf142b"/>
            <polygon points="241.27 180.29 195.53 146.08 144.39 146.08 190.13 180.29 241.27 180.29" style="fill: #cf142b"/>
          </g>
        </g>
      </g>
    </g>
  </g>
</svg>
