<svg
        xmlns="http://www.w3.org/2000/svg"
        width="0px"
        height="0px"
        version="1.1">
  <szcore:glyphMeta xmlns:szcore="urn:xenaksys:szcore:glyph" isComposite="false" codePoint="U+E050" intCodePoint="U+57424" glyphName="gClef" glyphDescription="G clef" />
  <path transform="scale(0.04, -0.04) translate(0, -1140)" unicode="&#xe050;" horiz-adv-x="671"
    d="M470 943q-50 0 -91.5 -71t-41.5 -181q0 -53 6 -92q3 -17 13 -8q31 27 63 59q111 111 111 211q0 40 -17 61t-43 21zM430 103l49 -285q1 -9 4 -10t12 4q43 22 68.5 59t25.5 83q0 65 -43 111.5t-105 51.5q-9 1 -11 -2t0 -12zM361 262l-21 128q-2 8 -4 9t-10 -5 q-94 -76 -153 -142q-93 -105 -93 -232q0 -105 79 -170.5t209 -65.5q29 0 56 5q12 2 13.5 4t0.5 10l-50 298q-2 8 -5 9.5t-15 -1.5q-46 -13 -73 -44t-27 -73q0 -34 20 -63.5t52 -43.5q15 -6 15 -13q0 -11 -12 -11q-11 0 -27 6q-52 18 -83.5 64.5t-31.5 112.5q0 64 39.5 118 t105.5 76q14 5 15.5 7.5t-0.5 16.5zM376 415l25 -145q2 -14 5.5 -16t23.5 -2q107 0 174 -71t67 -170q0 -83 -45 -145t-123 -93q-1 -1 -4 -2q-10 -4 -10 -8q0 -2 1 -7q29 -163 29 -214q0 -48 -14.5 -85.5t-35.5 -58.5t-49 -34.5t-51.5 -17.5t-46.5 -4q-54 0 -93 16t-59 41.5 t-29 52t-9 53.5q0 48 29 81.5t78 33.5q44 0 70 -29.5t26 -72.5q0 -40 -19.5 -63t-47.5 -31q-32 -10 -32 -17q0 -11 21 -20t59 -9q27 0 50.5 5.5t50.5 21.5t42.5 51.5t15.5 87.5q0 50 -27 201q-1 8 -4 9.5t-11 -0.5q-30 -6 -69 -6q-89 0 -160 28.5t-114.5 76t-66.5 107.5 t-23 127q0 146 112 286q62 76 185 178q8 7 9.5 11t-0.5 13q-14 82 -14 164q0 202 98 311q44 48 65 48q8 0 24 -16t28 -34q65 -95 65 -233q0 -84 -35.5 -169.5t-98.5 -154.5q-27 -30 -56 -57q-8 -8 -6 -19z" />
</svg>