<svg
        xmlns="http://www.w3.org/2000/svg"
        width="0" height="0" version="1.1">
<szcore:glyphMeta xmlns:szcore="urn:xenaksys:szcore:glyph" isComposite="false" codePoint="U+E084" intCodePoint="U+57476" glyphName="timeSig4" glyphDescription="Time signature 4" />
<path transform="scale(0.04, -0.04) translate(0, -510)" 
d="M362 -74h73q15 0 15 -19t-15 -19h-73v-59q0 -21 10 -29.5t21 -8.5q22 0 22 -20q0 -21 -20 -21h-213q-19 0 -19 21q0 19 23 19q40 0 40 35v63h-186q-20 0 -20 17q0 5 3 11l1 1v2l6 8q128 179 128 305q0 19 23 19q3 0 32 -1t39 -1t37.5 1t30.5 1q15 0 15 -14 q0 -1 -0.5 -2.5t-0.5 -2.5q-2 -7 -44.5 -67t-102.5 -134t-96 -105h135v84q0 12 9 23l95 115q8 9 20 9t12 -17v-214z" /></svg>